<svg id="Layer_1" data-name="Layer 1" xmlns="http://www.w3.org/2000/svg" xmlns:xlink="http://www.w3.org/1999/xlink" viewBox="0 0 512 512"><defs><style>.cls-1{fill:#fff;}.cls-2{fill:url(#linear-gradient);}.cls-3{fill:url(#linear-gradient-2);}.cls-4{fill:url(#linear-gradient-3);}</style><linearGradient id="linear-gradient" x1="217.6" y1="390.4" x2="217.6" y2="44.8" gradientUnits="userSpaceOnUse"><stop offset="0" stop-color="#f2a4ba"/><stop offset="1" stop-color="#ffdce7"/></linearGradient><linearGradient id="linear-gradient-2" x1="128.06" y1="182.99" x2="294.4" y2="182.99" gradientUnits="userSpaceOnUse"><stop offset="0.16" stop-color="#f96992"/><stop offset="1" stop-color="#f96992"/></linearGradient><linearGradient id="linear-gradient-3" x1="0" y1="256" x2="512" y2="256" xlink:href="#linear-gradient-2"/></defs><title>speech-bubbles-filled</title><polygon class="cls-1" points="211.2 204.8 492.8 204.8 492.8 390.4 428.8 390.4 428.8 467.2 352 390.4 211.2 390.4 211.2 204.8"/><polygon class="cls-2" points="416 44.8 19.2 44.8 19.2 313.6 83.2 313.6 83.2 390.4 160 313.6 416 313.6 416 44.8"/><path class="cls-1" d="M264.31,185.18a37.21,37.21,0,0,0-52.58-52.66l-.53.53-.53-.53a37.21,37.21,0,1,0-52.58,52.66l53.1,51.62Z"/><path class="cls-3" d="M238,102.4h0a56,56,0,0,0-26.83,6.77,56.41,56.41,0,0,0-66.68,9.77,56.6,56.6,0,0,0,.2,80l66.49,64.62L277.69,199l.21-.2A56.45,56.45,0,0,0,238,102.4Zm12.76,69.13L211.21,210l-39.52-38.4a18.1,18.1,0,0,1,0-25.55,17.94,17.94,0,0,1,25.41,0l14.1,14.1,14.11-14.12A17.84,17.84,0,0,1,238,140.8h0a18.06,18.06,0,0,1,12.77,30.73Z"/><path class="cls-4" d="M492.8,185.6H435.2V44.8A19.2,19.2,0,0,0,416,25.6H19.2A19.2,19.2,0,0,0,0,44.8V313.6a19.2,19.2,0,0,0,19.2,19.2H64v57.6A19.2,19.2,0,0,0,96.78,404l71.17-71.17H192v57.6a19.2,19.2,0,0,0,19.2,19.2H344.05l71.17,71.17A19.2,19.2,0,0,0,448,467.2V409.6h44.8A19.2,19.2,0,0,0,512,390.4V204.8A19.2,19.2,0,0,0,492.8,185.6ZM160,294.4A19.18,19.18,0,0,0,146.43,300l-44,44V313.6a19.2,19.2,0,0,0-19.2-19.2H38.4V64H396.8V294.4Zm313.6,76.8H428.8a19.2,19.2,0,0,0-19.2,19.2v30.45l-44-44A19.18,19.18,0,0,0,352,371.2H230.4V332.8H416a19.2,19.2,0,0,0,19.2-19.2V224h38.4Z"/></svg>